# xmcd
#
# Track frame offsets: 
#        150
#        16203
#        28785
#        43611
#        59311
#        74391
#        94956
#        108839
#        125924
#        139909
#        154246
#        169849
#        183996
#        198351
#        213342
#        226871
#        243450
#        256968
#        271136
#        287890
#        303582
#        315673
#        329240
#
# Disc length: 4679 seconds
#
# Revision: 0
# Processed by: cddbd v1.5.2PL0 Copyright (c) Steve Scherf et al.
# Submitted via: ExactAudioCopy v1.1
#
DISCID=5b124517
DTITLE=Various Artist - MNM Big Hits 2017 Vol. 3
DYEAR=2017
DGENRE=Top 40
TTITLE0=Lost Frequencies and Netsky - Here With You
TTITLE1=Ed Sheeran - Galway Girl
TTITLE2=Lil Kleine Feat. Boef - Krantenwijk
TTITLE3=Dua Lipa - New Rules
TTITLE4=Axwell Λ Ingrosso - More Than You Know
TTITLE5=Coldplay and Big Sean - Miracles (Someone Special)
TTITLE6=J Balvin and Willy William - Mi Gente
TTITLE7=Oscar And The Wolf - Breathing
TTITLE8=Imagine Dragons - Thunder
TTITLE9=David Guetta Feat. Justin Bieber - 2U
TTITLE10=Laura Tesoro - Higher
TTITLE11=Niall Horan - Slow Hands
TTITLE12=Robin Schulz Feat. James Blunt - OK
TTITLE13=Anne-Marie - Ciao Adios
TTITLE14=Avicii Feat. Sandro Cavazza - Without You
TTITLE15=Milo Meskens - New Beginning
TTITLE16=Rita Ora - Your Song
TTITLE17=Emma Bale - Curaçao
TTITLE18=Cheat Codes Feat. Demi Lovato - No Promises
TTITLE19=The Script - Rain
TTITLE20=Portugal. The Man - Feel It Still
TTITLE21=Regi - Where Did You Go (Summer Love)
TTITLE22=DJ Khaled Feat. Justin Bieber, Quavo, Chance The Rapper and Lil
TTITLE22=Wayne - I'm The One
EXTD=
EXTT0=
EXTT1=
EXTT2=
EXTT3=
EXTT4=
EXTT5=
EXTT6=
EXTT7=
EXTT8=
EXTT9=
EXTT10=
EXTT11=
EXTT12=
EXTT13=
EXTT14=
EXTT15=
EXTT16=
EXTT17=
EXTT18=
EXTT19=
EXTT20=
EXTT21=
EXTT22=
PLAYORDER=
